<svg width="538" height="562" viewBox="0 0 538 562" fill="none" xmlns="http://www.w3.org/2000/svg">
<path d="M491.469 489.701C492.707 489.695 493.94 489.625 495.173 489.496C496.406 489.368 497.628 489.174 498.844 488.923C500.054 488.665 501.254 488.349 502.436 487.974C503.618 487.594 504.784 487.155 505.927 486.663C507.071 486.165 508.186 485.609 509.279 485C510.366 484.391 511.425 483.724 512.456 483.004C513.487 482.284 514.479 481.517 515.432 480.698C516.39 479.878 517.304 479.006 518.184 478.092C519.058 477.179 519.887 476.225 520.672 475.224C521.457 474.223 522.196 473.187 522.88 472.115C523.569 471.038 524.208 469.932 524.791 468.79C525.379 467.654 525.906 466.489 526.383 465.295C526.859 464.101 527.274 462.883 527.638 461.648C527.997 460.413 528.299 459.16 528.546 457.89C528.787 456.625 528.972 455.349 529.095 454.061C529.224 452.773 529.286 451.485 529.291 450.191V162.096C529.286 160.802 529.224 159.509 529.095 158.227C528.972 156.939 528.787 155.662 528.546 154.392C528.299 153.128 527.997 151.875 527.638 150.64C527.274 149.404 526.859 148.187 526.383 146.992C525.906 145.798 525.379 144.633 524.791 143.492C524.208 142.356 523.569 141.244 522.88 140.172C522.196 139.095 521.457 138.059 520.672 137.064C519.887 136.063 519.058 135.108 518.184 134.189C517.304 133.276 516.39 132.41 515.432 131.59C514.479 130.771 513.487 129.998 512.456 129.278C511.425 128.564 510.366 127.896 509.279 127.287C508.186 126.673 507.071 126.122 505.927 125.625C504.784 125.127 503.618 124.694 502.436 124.313C501.254 123.939 500.054 123.623 498.844 123.365C497.628 123.113 496.406 122.92 495.173 122.785C493.94 122.657 492.707 122.592 491.469 122.586H46.5315C45.293 122.592 44.0601 122.657 42.8271 122.785C41.5942 122.92 40.3725 123.113 39.1564 123.365C37.9459 123.623 36.7466 123.939 35.5641 124.313C34.3817 124.694 33.216 125.127 32.0728 125.625C30.9295 126.122 29.8143 126.673 28.7215 127.287C27.6343 127.896 26.5751 128.564 25.5439 129.278C24.5127 129.998 23.5208 130.771 22.5681 131.59C21.6098 132.41 20.6963 133.276 19.8164 134.189C18.9422 135.108 18.1128 136.063 17.3282 137.064C16.5436 138.059 15.8039 139.095 15.1201 140.172C14.4308 141.244 13.792 142.356 13.2091 143.492C12.6207 144.633 12.0939 145.798 11.6175 146.992C11.1412 148.187 10.7265 149.404 10.3622 150.64C10.0035 151.875 9.70092 153.128 9.45434 154.392C9.21336 155.662 9.02842 156.939 8.90513 158.227C8.77624 159.509 8.71459 160.802 8.70898 162.096V450.191C8.71459 451.485 8.77624 452.773 8.90513 454.061C9.02842 455.349 9.21336 456.625 9.45434 457.89C9.70092 459.16 10.0035 460.413 10.3622 461.648C10.7265 462.883 11.1412 464.101 11.6175 465.295C12.0939 466.489 12.6207 467.654 13.2091 468.79C13.792 469.932 14.4308 471.038 15.1201 472.115C15.8039 473.187 16.5436 474.223 17.3282 475.224C18.1128 476.225 18.9422 477.179 19.8164 478.092C20.6963 479.006 21.6098 479.878 22.5681 480.698C23.5208 481.517 24.5127 482.284 25.5439 483.004C26.5751 483.724 27.6343 484.391 28.7215 485C29.8143 485.609 30.9295 486.165 32.0728 486.663C33.216 487.155 34.3817 487.594 35.5641 487.974C36.7466 488.349 37.9459 488.665 39.1564 488.923C40.3725 489.174 41.5942 489.368 42.8271 489.496C44.0601 489.625 45.293 489.695 46.5315 489.701H491.469Z" fill="#85A662"/>
<path d="M517.943 478.338L346.197 306.144L285.358 245.155C284.266 244.066 283.083 243.094 281.817 242.24C280.544 241.385 279.211 240.665 277.81 240.079C276.409 239.494 274.968 239.049 273.489 238.751C272.004 238.452 270.507 238.306 269 238.306C267.492 238.306 265.996 238.452 264.511 238.751C263.031 239.049 261.591 239.494 260.19 240.079C258.789 240.665 257.455 241.385 256.183 242.24C254.917 243.094 253.734 244.066 252.641 245.155L191.802 306.144L20.0571 478.338L46.5312 489.701H491.468C493.923 489.701 496.355 489.449 498.765 488.958C501.169 488.46 503.512 487.728 505.781 486.751C508.051 485.779 510.209 484.585 512.254 483.168C514.305 481.751 516.2 480.141 517.943 478.338Z" fill="#AEC881"/>
<path d="M285.358 367.133L346.197 306.144L517.943 133.944C516.2 132.14 514.305 130.536 512.254 129.12C510.209 127.703 508.051 126.509 505.781 125.537C503.512 124.559 501.169 123.828 498.765 123.33C496.355 122.832 493.923 122.586 491.468 122.586H46.5312C44.0766 122.586 41.6444 122.832 39.2346 123.33C36.8304 123.828 34.4879 124.559 32.2182 125.537C29.9485 126.509 27.7909 127.703 25.7454 129.12C23.6942 130.536 21.8 132.14 20.0571 133.944L191.802 306.144L252.641 367.133C253.734 368.221 254.917 369.193 256.183 370.042C257.455 370.897 258.789 371.617 260.19 372.208C261.591 372.794 263.031 373.233 264.511 373.531C265.996 373.836 267.492 373.982 269 373.982C270.507 373.982 272.004 373.836 273.489 373.531C274.968 373.233 276.409 372.794 277.81 372.208C279.211 371.617 280.544 370.897 281.817 370.042C283.083 369.193 284.266 368.221 285.358 367.133Z" fill="#96B773"/>
<mask id="mask0_3101_8818" style="mask-type:luminance" maskUnits="userSpaceOnUse" x="123" y="479" width="64" height="20">
<path d="M123.381 479.573H186.507V498.453H123.381V479.573Z" fill="white"/>
</mask>
<g mask="url(#mask0_3101_8818)">
<path d="M177.809 498.342C178.353 498.342 178.891 498.283 179.423 498.172C179.956 498.061 180.471 497.897 180.976 497.68C181.474 497.463 181.956 497.2 182.405 496.884C182.859 496.568 183.273 496.211 183.66 495.807C184.041 495.409 184.388 494.97 184.686 494.501C184.988 494.027 185.246 493.529 185.453 493.003C185.661 492.482 185.818 491.943 185.924 491.387C186.031 490.825 186.081 490.263 186.081 489.701C186.081 489.133 186.031 488.571 185.924 488.015C185.818 487.453 185.661 486.914 185.453 486.393C185.246 485.866 184.988 485.369 184.686 484.895C184.388 484.426 184.041 483.987 183.66 483.589C183.273 483.185 182.859 482.828 182.405 482.512C181.956 482.196 181.474 481.932 180.976 481.716C180.471 481.499 179.956 481.335 179.423 481.224C178.891 481.113 178.353 481.054 177.809 481.054H132.617C132.074 481.054 131.536 481.113 131.003 481.224C130.471 481.335 129.95 481.499 129.451 481.716C128.946 481.932 128.47 482.196 128.022 482.512C127.568 482.828 127.148 483.185 126.766 483.589C126.38 483.987 126.038 484.426 125.735 484.895C125.433 485.369 125.18 485.866 124.973 486.393C124.766 486.914 124.609 487.453 124.502 488.015C124.396 488.571 124.34 489.133 124.34 489.701C124.34 490.263 124.396 490.825 124.502 491.387C124.609 491.943 124.766 492.482 124.973 493.003C125.18 493.529 125.433 494.027 125.735 494.501C126.038 494.97 126.38 495.409 126.766 495.807C127.148 496.211 127.568 496.568 128.022 496.884C128.47 497.2 128.946 497.463 129.451 497.68C129.95 497.897 130.471 498.061 131.003 498.172C131.536 498.283 132.074 498.342 132.617 498.342H177.809Z" fill="#155036"/>
</g>
<mask id="mask1_3101_8818" style="mask-type:luminance" maskUnits="userSpaceOnUse" x="0" y="114" width="538" height="385">
<path d="M0 114.045H538V498.453H0V114.045Z" fill="white"/>
</mask>
<g mask="url(#mask1_3101_8818)">
<path d="M210.335 481.054C209.792 481.054 209.254 481.113 208.721 481.224C208.189 481.335 207.668 481.499 207.169 481.716C206.665 481.932 206.188 482.196 205.734 482.512C205.286 482.828 204.866 483.185 204.485 483.589C204.098 483.987 203.756 484.426 203.454 484.895C203.151 485.369 202.899 485.866 202.691 486.393C202.484 486.914 202.327 487.453 202.221 488.015C202.114 488.571 202.058 489.133 202.058 489.701C202.058 490.263 202.114 490.825 202.221 491.387C202.327 491.943 202.484 492.482 202.691 493.003C202.899 493.53 203.151 494.027 203.454 494.501C203.756 494.97 204.098 495.409 204.485 495.807C204.866 496.211 205.286 496.568 205.734 496.884C206.188 497.2 206.665 497.464 207.169 497.68C207.668 497.897 208.189 498.061 208.721 498.172C209.254 498.283 209.792 498.342 210.335 498.342H491.468C492.982 498.336 494.484 498.254 495.985 498.096C497.487 497.938 498.972 497.704 500.452 497.393C501.931 497.083 503.394 496.697 504.834 496.24C506.28 495.778 507.698 495.245 509.088 494.642C510.483 494.033 511.845 493.36 513.173 492.616C514.502 491.873 515.796 491.065 517.052 490.187C518.301 489.309 519.512 488.372 520.677 487.371C521.843 486.37 522.958 485.316 524.029 484.198C525.094 483.086 526.108 481.921 527.061 480.703C528.019 479.485 528.916 478.221 529.756 476.91C530.597 475.604 531.37 474.252 532.082 472.864C532.794 471.477 533.444 470.054 534.021 468.597C534.598 467.145 535.108 465.664 535.551 464.153C535.988 462.649 536.358 461.121 536.655 459.575C536.952 458.03 537.176 456.473 537.327 454.91C537.479 453.341 537.557 451.766 537.563 450.191V162.096C537.552 160.521 537.467 158.952 537.311 157.383C537.159 155.82 536.93 154.263 536.627 152.723C536.324 151.178 535.954 149.656 535.512 148.151C535.069 146.647 534.553 145.171 533.976 143.714C533.393 142.262 532.743 140.845 532.031 139.458C531.32 138.07 530.541 136.724 529.7 135.418C528.865 134.113 527.963 132.848 527.01 131.631C526.052 130.419 525.037 129.254 523.973 128.142C522.908 127.024 521.793 125.97 520.633 124.969C519.467 123.968 518.256 123.031 517.007 122.153C515.757 121.281 514.468 120.467 513.14 119.723C511.812 118.98 510.455 118.301 509.06 117.692C507.67 117.089 506.258 116.55 504.818 116.088C503.377 115.625 501.92 115.239 500.441 114.923C498.967 114.607 497.476 114.367 495.98 114.203C494.478 114.045 492.976 113.957 491.468 113.945H46.5313C45.0182 113.951 43.5162 114.027 42.0143 114.185C40.5124 114.343 39.0217 114.578 37.5478 114.888C36.0683 115.198 34.6056 115.584 33.1597 116.047C31.7195 116.504 30.3016 117.036 28.9062 117.639C27.5163 118.248 26.1545 118.921 24.8263 119.665C23.4926 120.408 22.2036 121.222 20.9483 122.094C19.6929 122.972 18.4824 123.909 17.3168 124.91C16.1511 125.911 15.0359 126.965 13.9711 128.083C12.9063 129.195 11.8919 130.36 10.9336 131.578C9.9753 132.796 9.07864 134.06 8.23801 135.372C7.40299 136.683 6.62401 138.029 5.91228 139.423C5.20055 140.81 4.55607 142.233 3.97884 143.684C3.39601 145.142 2.88603 146.623 2.44891 148.128C2.00618 149.638 1.6363 151.166 1.33928 152.706C1.04226 154.251 0.818094 155.808 0.666782 157.377C0.521073 158.946 0.442616 160.515 0.437012 162.096V450.191C0.448219 451.766 0.532282 453.335 0.689199 454.904C0.846115 456.467 1.07028 458.018 1.37291 459.564C1.67553 461.103 2.04541 462.625 2.49374 464.13C2.93647 465.634 3.44645 467.116 4.02928 468.567C4.61212 470.019 5.25659 471.436 5.96832 472.823C6.68566 474.211 7.45903 475.557 8.29966 476.863C9.14028 478.174 10.0369 479.433 10.9953 480.65C11.9536 481.868 12.9623 483.033 14.0271 484.145C15.0919 485.258 16.2071 486.311 17.3728 487.312C18.5385 488.313 19.7434 489.25 20.9931 490.128C22.2484 491.001 23.5374 491.814 24.8656 492.558C26.1882 493.307 27.55 493.98 28.9398 494.589C30.3296 495.198 31.7419 495.731 33.1822 496.193C34.6224 496.656 36.0851 497.048 37.559 497.364C39.0329 497.674 40.5236 497.914 42.0199 498.078C43.5218 498.242 45.0238 498.33 46.5313 498.342H100.135C100.679 498.342 101.217 498.283 101.749 498.172C102.287 498.061 102.803 497.897 103.301 497.68C103.806 497.464 104.282 497.2 104.736 496.884C105.184 496.568 105.605 496.211 105.986 495.807C106.373 495.409 106.714 494.97 107.017 494.501C107.32 494.027 107.572 493.53 107.779 493.003C107.987 492.482 108.143 491.943 108.25 491.387C108.356 490.825 108.412 490.263 108.412 489.701C108.412 489.133 108.356 488.571 108.25 488.015C108.143 487.453 107.987 486.914 107.779 486.393C107.572 485.866 107.32 485.369 107.017 484.895C106.714 484.426 106.373 483.987 105.986 483.589C105.605 483.185 105.184 482.828 104.736 482.512C104.282 482.196 103.806 481.932 103.301 481.716C102.803 481.499 102.287 481.335 101.749 481.224C101.217 481.113 100.679 481.054 100.135 481.054H46.5313C41.6781 481.066 37.1107 479.889 32.8179 477.518L191.802 318.115L246.919 373.367C247.654 374.105 248.416 374.801 249.212 375.463C250.013 376.124 250.837 376.745 251.689 377.324C252.546 377.904 253.42 378.437 254.328 378.922C255.23 379.414 256.155 379.859 257.097 380.257C258.038 380.655 259.002 381.007 259.977 381.305C260.952 381.61 261.939 381.861 262.936 382.06C263.939 382.265 264.942 382.417 265.957 382.517C266.971 382.616 267.986 382.669 269 382.669C270.02 382.669 271.034 382.616 272.049 382.517C273.063 382.417 274.066 382.265 275.064 382.06C276.067 381.861 277.053 381.61 278.028 381.305C279.003 381.007 279.962 380.655 280.909 380.257C281.85 379.859 282.775 379.414 283.677 378.922C284.579 378.437 285.459 377.904 286.317 377.324C287.169 376.745 287.992 376.124 288.788 375.463C289.59 374.801 290.352 374.105 291.086 373.367L346.192 318.115L408.639 380.708C409.407 381.487 410.287 382.078 411.278 382.499C412.27 382.915 413.296 383.12 414.366 383.12C415.185 383.102 415.986 382.968 416.765 382.704C417.544 382.447 418.272 382.072 418.945 381.586C419.623 381.1 420.217 380.527 420.727 379.859C421.237 379.192 421.646 378.46 421.954 377.664C422.257 376.874 422.448 376.048 422.52 375.193C422.593 374.345 422.548 373.502 422.386 372.659C422.218 371.821 421.943 371.025 421.551 370.276C421.164 369.521 420.677 368.842 420.094 368.239L358.145 306.143L517.102 146.775C519.719 151.512 521.025 156.616 521.019 162.084V450.191C521.019 455.665 519.708 460.764 517.085 465.5L443.441 391.661C443.048 391.263 442.623 390.918 442.163 390.613C441.709 390.309 441.227 390.051 440.717 389.846C440.213 389.636 439.692 389.483 439.159 389.384C438.621 389.284 438.083 389.243 437.54 389.255C436.996 389.267 436.464 389.331 435.931 389.454C435.399 389.577 434.883 389.753 434.39 389.981C433.891 390.209 433.421 390.484 432.972 390.812C432.529 391.134 432.12 391.503 431.745 391.913C431.364 392.323 431.033 392.768 430.742 393.248C430.445 393.722 430.204 394.225 430.008 394.758C429.806 395.285 429.66 395.829 429.565 396.385C429.47 396.947 429.43 397.509 429.442 398.077C429.453 398.645 429.514 399.201 429.632 399.757C429.75 400.314 429.918 400.846 430.136 401.367C430.355 401.888 430.618 402.38 430.932 402.848C431.241 403.311 431.594 403.738 431.986 404.131L505.182 477.501C500.889 479.866 496.322 481.043 491.468 481.037L210.335 481.054ZM20.9146 465.494C18.2863 460.764 16.9749 455.659 16.9805 450.185V162.096C16.9749 156.622 18.2807 151.523 20.8978 146.787L179.86 306.143L20.9146 465.494ZM279.631 360.892C278.925 361.606 278.157 362.238 277.333 362.8C276.509 363.356 275.641 363.83 274.727 364.211C273.819 364.597 272.884 364.89 271.914 365.083C270.95 365.276 269.975 365.376 268.994 365.376C268.014 365.376 267.038 365.276 266.074 365.083C265.111 364.89 264.169 364.597 263.261 364.211C262.348 363.83 261.479 363.356 260.655 362.8C259.831 362.244 259.064 361.606 258.358 360.892L32.8179 134.786C37.1107 132.415 41.6781 131.239 46.5313 131.25H491.468C496.322 131.239 500.889 132.421 505.182 134.786L279.631 360.892Z" fill="#155036"/>
</g>
<mask id="mask2_3101_8818" style="mask-type:luminance" maskUnits="userSpaceOnUse" x="446" y="47" width="80" height="69">
<path d="M446.921 47.9575H525.469V115.398H446.921V47.9575Z" fill="white"/>
</mask>
<g mask="url(#mask2_3101_8818)">
<path fill-rule="evenodd" clip-rule="evenodd" d="M508.331 57.9858C471.053 57.8101 451.04 75.9932 449.331 113.63C449.308 114.104 448.647 114.127 448.58 113.659C446.921 101.359 447.24 90.1544 450.227 80.4131C460.091 48.262 497.706 44.0411 524.393 54.2215C525.721 54.725 525.99 56.5164 524.886 57.4413C504.067 74.8341 506.902 122.288 456.23 101.722C464.143 76.0283 480.372 60.1108 508.331 57.9858Z" fill="#3B4901"/>
</g>
<mask id="mask3_3101_8818" style="mask-type:luminance" maskUnits="userSpaceOnUse" x="403" y="73" width="49" height="43">
<path d="M403.887 73.4346H451.231V115.397H403.887V73.4346Z" fill="white"/>
</mask>
<g mask="url(#mask3_3101_8818)">
<mask id="mask4_3101_8818" style="mask-type:luminance" maskUnits="userSpaceOnUse" x="403" y="73" width="49" height="43">
<path d="M451.92 73.4346H403.141V115.397H451.92V73.4346Z" fill="white"/>
</mask>
<g mask="url(#mask4_3101_8818)">
<mask id="mask5_3101_8818" style="mask-type:luminance" maskUnits="userSpaceOnUse" x="404" y="74" width="48" height="41">
<path d="M404.206 74.9331H451.231V114.378H404.206V74.9331Z" fill="white"/>
</mask>
<g mask="url(#mask5_3101_8818)">
<path fill-rule="evenodd" clip-rule="evenodd" d="M414.529 80.2839C437.002 80.1785 449.068 91.1375 450.099 113.828C450.11 114.115 450.508 114.127 450.547 113.846C451.55 106.434 451.354 99.6787 449.555 93.807C443.609 74.4239 420.935 71.8832 404.851 78.0125C404.049 78.3227 403.887 79.3999 404.554 79.9561C417.101 90.4409 415.392 119.05 445.935 106.651C441.166 91.1609 431.386 81.566 414.529 80.2839Z" fill="#3B4901"/>
</g>
</g>
</g>
</svg>
