<svg width="110" height="26" viewBox="0 0 110 26" fill="none" xmlns="http://www.w3.org/2000/svg">
<g clip-path="url(#clip0_3102_2935)">
<path d="M15.6401 24.2829C11.1517 27.4956 6.76943 25.2656 6.28467 25.0015C6.28698 25.0015 6.28814 25.0004 6.28814 24.9981L7.38942 22.9261C8.03785 23.1797 12.4603 24.689 15.2919 20.8187C15.7947 20.1313 16.1359 19.3343 16.2511 18.4903C16.4334 17.1514 16.2462 15.1044 14.1137 13.3539C14.536 12.6422 14.8994 11.8321 15.1817 10.9111C17.9744 12.8293 18.6901 15.6858 18.6901 15.6858C18.6901 15.6858 20.4371 20.8533 15.6401 24.2822V24.2829Z" fill="url(#paint0_linear_3102_2935)"/>
<path d="M15.2073 10.9195C14.9244 11.8398 14.5617 12.6506 14.1393 13.3623C11.2842 18.1591 5.77149 18.4744 4.57103 18.4855C4.4351 18.4855 4.3179 18.3864 4.29917 18.2547C3.67918 13.9236 7.97684 10.0214 9.37148 8.88077C9.41586 8.84404 9.36801 8.77474 9.31669 8.80385C-2.96392 15.5223 6.07663 22.4355 7.38735 22.9227C7.39152 22.9241 7.4144 22.9365 7.4144 22.9365C7.4144 22.9365 6.35819 25.0529 6.28468 25.0023C6.27566 24.9954 6.26595 24.9891 6.26595 24.9891C1.01611 22.527 -0.157302 16.6831 0.0160747 13.8501C0.417615 7.30493 8.61556 5.05551 8.61556 5.05551C12.7919 3.72775 14.3994 1.09858 14.8842 0.0826681C14.9431 -0.0420687 15.1262 -0.0198933 15.156 0.115931C16.1651 4.81782 16.0111 8.31599 15.2073 10.9202V10.9195Z" fill="#465224"/>
<path d="M15.6401 24.2829C11.1517 27.4956 6.76943 25.2656 6.28467 25.0015C6.28698 25.0015 6.28814 25.0004 6.28814 24.9981L7.38942 22.9261C8.03785 23.1797 12.4603 24.689 15.2919 20.8187C15.7947 20.1313 16.1359 19.3343 16.2511 18.4903C16.4334 17.1514 16.2462 15.1044 14.1137 13.3539C14.536 12.6422 14.8994 11.8321 15.1817 10.9111C17.9744 12.8293 18.6901 15.6858 18.6901 15.6858C18.6901 15.6858 20.4371 20.8533 15.6401 24.2822V24.2829Z" fill="url(#paint1_linear_3102_2935)"/>
<path d="M15.2073 10.9195C14.9244 11.8398 14.5617 12.6506 14.1393 13.3623C11.2842 18.1591 5.77149 18.4744 4.57103 18.4855C4.4351 18.4855 4.3179 18.3864 4.29917 18.2547C3.67918 13.9236 7.97684 10.0214 9.37148 8.88077C9.41586 8.84404 9.36801 8.77474 9.31669 8.80385C-2.96392 15.5223 6.07663 22.4355 7.38735 22.9227C7.39152 22.9241 7.4144 22.9365 7.4144 22.9365C7.4144 22.9365 6.35819 25.0529 6.28468 25.0023C6.27566 24.9954 6.26595 24.9891 6.26595 24.9891C1.01611 22.527 -0.157302 16.6831 0.0160747 13.8501C0.417615 7.30493 8.61556 5.05551 8.61556 5.05551C12.7919 3.72775 14.3994 1.09858 14.8842 0.0826681C14.9431 -0.0420687 15.1262 -0.0198933 15.156 0.115931C16.1651 4.81782 16.0111 8.31599 15.2073 10.9202V10.9195Z" fill="#465224"/>
<path d="M16.6444 21.9869C16.9558 22.2807 16.9662 22.7755 16.668 23.0901C16.3698 23.4054 15.876 23.4221 15.5647 23.1275C15.2533 22.8337 15.2422 22.3396 15.5404 22.0243C15.8386 21.709 16.3331 21.6924 16.6444 21.9862V21.9869Z" fill="#AEC16B"/>
<path d="M15.0367 23.1962C15.2503 23.3979 15.26 23.7347 15.0575 23.9481C14.855 24.1622 14.5179 24.1712 14.3043 23.9696C14.0907 23.7679 14.081 23.4304 14.2835 23.2163C14.486 23.0022 14.8231 22.9939 15.0367 23.1955V23.1962Z" fill="#677632"/>
<path d="M17.1989 20.8254C17.346 20.964 17.3529 21.1954 17.2142 21.3424C17.0748 21.49 16.8432 21.4955 16.6961 21.3569C16.5484 21.2176 16.5422 20.9869 16.6816 20.8392C16.821 20.6916 17.0512 20.6861 17.1989 20.8254Z" fill="#5A6C30"/>
<path d="M15.5445 21.1705C15.6582 21.2779 15.663 21.4567 15.5556 21.5703C15.4488 21.6833 15.2698 21.6881 15.1561 21.5807C15.0424 21.4733 15.0375 21.2945 15.1443 21.1816C15.2511 21.0686 15.4307 21.0631 15.5445 21.1705Z" fill="#698539"/>
</g>
<path d="M26.0114 20V8.36364H28.4716V13.1648H33.4659V8.36364H35.9205V20H33.4659V15.1932H28.4716V20H26.0114ZM39.3977 23.2727C39.0909 23.2727 38.803 23.2481 38.5341 23.1989C38.2689 23.1534 38.0492 23.0947 37.875 23.0227L38.4205 21.2159C38.7045 21.303 38.9602 21.3504 39.1875 21.358C39.4186 21.3655 39.6174 21.3125 39.7841 21.1989C39.9545 21.0852 40.0928 20.892 40.1989 20.6193L40.3409 20.25L37.2102 11.2727H39.7557L41.5625 17.6818H41.6534L43.4773 11.2727H46.0398L42.6477 20.9432C42.4848 21.4129 42.2633 21.822 41.983 22.1705C41.7064 22.5227 41.3561 22.7936 40.9318 22.983C40.5076 23.1761 39.9962 23.2727 39.3977 23.2727ZM50.2131 20.142C49.5502 20.142 48.9498 19.9716 48.4119 19.6307C47.8778 19.286 47.4536 18.7803 47.1392 18.1136C46.8286 17.4432 46.6733 16.6212 46.6733 15.6477C46.6733 14.6477 46.8343 13.8163 47.1562 13.1534C47.4782 12.4867 47.9063 11.9886 48.4403 11.6591C48.9782 11.3258 49.5672 11.1591 50.2074 11.1591C50.696 11.1591 51.1032 11.2424 51.429 11.4091C51.7585 11.572 52.0237 11.7765 52.2244 12.0227C52.429 12.2652 52.5843 12.5038 52.6903 12.7386H52.7642V8.36364H55.179V20H52.7926V18.6023H52.6903C52.5767 18.8447 52.4157 19.0852 52.2074 19.3239C52.0028 19.5587 51.7358 19.7538 51.4062 19.9091C51.0805 20.0644 50.6828 20.142 50.2131 20.142ZM50.9801 18.2159C51.3703 18.2159 51.6998 18.1098 51.9688 17.8977C52.2415 17.6818 52.4498 17.3807 52.5938 16.9943C52.7415 16.608 52.8153 16.1553 52.8153 15.6364C52.8153 15.1174 52.7434 14.6667 52.5994 14.2841C52.4555 13.9015 52.2472 13.6061 51.9744 13.3977C51.7017 13.1894 51.3703 13.0852 50.9801 13.0852C50.5824 13.0852 50.2472 13.1932 49.9744 13.4091C49.7017 13.625 49.4953 13.9242 49.3551 14.3068C49.215 14.6894 49.1449 15.1326 49.1449 15.6364C49.1449 16.1439 49.215 16.5928 49.3551 16.983C49.4991 17.3693 49.7055 17.6723 49.9744 17.892C50.2472 18.108 50.5824 18.2159 50.9801 18.2159ZM57.169 20V11.2727H59.5156V12.7955H59.6065C59.7656 12.2538 60.0327 11.8447 60.4077 11.5682C60.7827 11.2879 61.2145 11.1477 61.7031 11.1477C61.8243 11.1477 61.955 11.1553 62.0952 11.1705C62.2353 11.1856 62.3584 11.2064 62.4645 11.233V13.3807C62.3509 13.3466 62.1937 13.3163 61.9929 13.2898C61.7921 13.2633 61.6084 13.25 61.4418 13.25C61.0857 13.25 60.7675 13.3277 60.4872 13.483C60.2107 13.6345 59.991 13.8466 59.8281 14.1193C59.669 14.392 59.5895 14.7064 59.5895 15.0625V20H57.169ZM67.2528 20.1705C66.3703 20.1705 65.607 19.983 64.9631 19.608C64.3229 19.2292 63.8286 18.7027 63.4801 18.0284C63.1316 17.3504 62.9574 16.5644 62.9574 15.6705C62.9574 14.7689 63.1316 13.9811 63.4801 13.3068C63.8286 12.6288 64.3229 12.1023 64.9631 11.7273C65.607 11.3485 66.3703 11.1591 67.2528 11.1591C68.1354 11.1591 68.8968 11.3485 69.5369 11.7273C70.1809 12.1023 70.6771 12.6288 71.0256 13.3068C71.3741 13.9811 71.5483 14.7689 71.5483 15.6705C71.5483 16.5644 71.3741 17.3504 71.0256 18.0284C70.6771 18.7027 70.1809 19.2292 69.5369 19.608C68.8968 19.983 68.1354 20.1705 67.2528 20.1705ZM67.2642 18.2955C67.6657 18.2955 68.0009 18.1818 68.2699 17.9545C68.5388 17.7235 68.7415 17.4091 68.8778 17.0114C69.018 16.6136 69.0881 16.161 69.0881 15.6534C69.0881 15.1458 69.018 14.6932 68.8778 14.2955C68.7415 13.8977 68.5388 13.5833 68.2699 13.3523C68.0009 13.1212 67.6657 13.0057 67.2642 13.0057C66.8589 13.0057 66.518 13.1212 66.2415 13.3523C65.9688 13.5833 65.7623 13.8977 65.6222 14.2955C65.4858 14.6932 65.4176 15.1458 65.4176 15.6534C65.4176 16.161 65.4858 16.6136 65.6222 17.0114C65.7623 17.4091 65.9688 17.7235 66.2415 17.9545C66.518 18.1818 66.8589 18.2955 67.2642 18.2955ZM82.9006 8.36364V20H80.7756L75.7131 12.6761H75.6278V20H73.1676V8.36364H75.3267L80.3494 15.6818H80.4517V8.36364H82.9006ZM88.8651 20.1705C87.9673 20.1705 87.1946 19.9886 86.5469 19.625C85.9029 19.2576 85.4067 18.7386 85.0582 18.0682C84.7098 17.3939 84.5355 16.5966 84.5355 15.6761C84.5355 14.7784 84.7098 13.9905 85.0582 13.3125C85.4067 12.6345 85.8973 12.1061 86.5298 11.7273C87.1662 11.3485 87.9124 11.1591 88.7685 11.1591C89.3442 11.1591 89.8802 11.2519 90.3764 11.4375C90.8764 11.6193 91.312 11.8939 91.6832 12.2614C92.0582 12.6288 92.3499 13.0909 92.5582 13.6477C92.7666 14.2008 92.8707 14.8485 92.8707 15.5909V16.2557H85.5014V14.7557H90.5923C90.5923 14.4072 90.5166 14.0985 90.3651 13.8295C90.2135 13.5606 90.0033 13.3504 89.7344 13.1989C89.4692 13.0436 89.1605 12.9659 88.8082 12.9659C88.4408 12.9659 88.1151 13.0511 87.831 13.2216C87.5507 13.3883 87.331 13.6136 87.1719 13.8977C87.0128 14.178 86.9313 14.4905 86.9276 14.8352V16.2614C86.9276 16.6932 87.0071 17.0663 87.1662 17.3807C87.3291 17.6951 87.5582 17.9375 87.8537 18.108C88.1491 18.2784 88.4995 18.3636 88.9048 18.3636C89.1738 18.3636 89.42 18.3258 89.6435 18.25C89.867 18.1742 90.0582 18.0606 90.2173 17.9091C90.3764 17.7576 90.4976 17.572 90.581 17.3523L92.8196 17.5C92.706 18.0379 92.473 18.5076 92.1207 18.9091C91.7723 19.3068 91.3215 19.6174 90.7685 19.8409C90.2192 20.0606 89.5848 20.1705 88.8651 20.1705ZM96.1094 20L93.7344 11.2727H96.1832L97.5355 17.1364H97.6151L99.0241 11.2727H101.428L102.859 17.1023H102.933L104.263 11.2727H106.706L104.337 20H101.774L100.274 14.5114H100.166L98.6662 20H96.1094Z" fill="#445104"/>
<defs>
<linearGradient id="paint0_linear_3102_2935" x1="11.8979" y1="24.5698" x2="15.9527" y2="10.775" gradientUnits="userSpaceOnUse">
<stop offset="0.05" stop-color="#465224"/>
<stop offset="0.6" stop-color="#445023"/>
<stop offset="0.79" stop-color="#3F4921"/>
<stop offset="0.94" stop-color="#353D1D"/>
<stop offset="1" stop-color="#2F351B"/>
</linearGradient>
<linearGradient id="paint1_linear_3102_2935" x1="11.8979" y1="24.5698" x2="15.9527" y2="10.775" gradientUnits="userSpaceOnUse">
<stop offset="0.05" stop-color="#465224"/>
<stop offset="0.6" stop-color="#445023"/>
<stop offset="0.79" stop-color="#3F4921"/>
<stop offset="0.94" stop-color="#353D1D"/>
<stop offset="1" stop-color="#2F351B"/>
</linearGradient>
<clipPath id="clip0_3102_2935">
<rect width="19" height="26" fill="white"/>
</clipPath>
</defs>
</svg>
